<?xml version="1.0" encoding="UTF-8" standalone="no"?>
<svg
   class="MuiSvgIcon-root MuiSvgIcon-fontSizeMedium css-14yq2cq"
   focusable="false"
   aria-hidden="true"
   viewBox="0 0 18 20"
   data-testid="CalendarMonthIcon"
   version="1.1"
   id="svg4"
   sodipodi:docname="990e671c8dfd4507a96a4d43b0bbd5cc.svg"
   width="18"
   height="20"
   xmlns:inkscape="http://www.inkscape.org/namespaces/inkscape"
   xmlns:sodipodi="http://sodipodi.sourceforge.net/DTD/sodipodi-0.dtd"
   xmlns="http://www.w3.org/2000/svg"
   xmlns:svg="http://www.w3.org/2000/svg">
  <defs
     id="defs8" />
  <sodipodi:namedview
     id="namedview6"
     pagecolor="#ffffff"
     bordercolor="#666666"
     borderopacity="1.0"
     inkscape:pageshadow="2"
     inkscape:pageopacity="0.0"
     inkscape:pagecheckerboard="0" />
  <path
     d="M 16,2 H 15 V 0 H 13 V 2 H 5 V 0 H 3 V 2 H 2 C 0.89,2 0.01,2.9 0.01,4 L 0,18 c 0,1.1 0.89,2 2,2 h 14 c 1.1,0 2,-0.9 2,-2 V 4 C 18,2.9 17.1,2 16,2 m 0,16 H 2 V 8 H 16 Z M 6,12 H 4 v -2 h 2 z m 4,0 H 8 v -2 h 2 z m 4,0 h -2 v -2 h 2 z M 6,16 H 4 v -2 h 2 z m 4,0 H 8 v -2 h 2 z m 4,0 h -2 v -2 h 2 z"
     id="path2" />
</svg>
